<mxfile host="Electron" modified="2023-05-29T08:52:23.015Z" agent="Mozilla/5.0 (Macintosh; Intel Mac OS X 10_15_7) AppleWebKit/537.36 (KHTML, like Gecko) draw.io/21.2.8 Chrome/112.0.5615.165 Electron/24.2.0 Safari/537.36" etag="W4NT2riIUkpz2GAlKmvZ" version="21.2.8" type="device">
  <diagram name="Page-1" id="yWkIH-ibVfcjdgWgoyt8">
    <mxGraphModel dx="1026" dy="666" grid="1" gridSize="10" guides="1" tooltips="1" connect="1" arrows="1" fold="1" page="1" pageScale="1" pageWidth="827" pageHeight="1169" math="0" shadow="0">
      <root>
        <mxCell id="0" />
        <mxCell id="1" parent="0" />
        <mxCell id="q8HNpOCDMJFhJFrFd_V0-3" style="edgeStyle=orthogonalEdgeStyle;rounded=0;orthogonalLoop=1;jettySize=auto;html=1;exitX=0.25;exitY=0;exitDx=0;exitDy=0;entryX=0.25;entryY=1;entryDx=0;entryDy=0;curved=1;" edge="1" parent="1" source="bxZ5GJeIeUVU7ubKapGf-1" target="q8HNpOCDMJFhJFrFd_V0-1">
          <mxGeometry relative="1" as="geometry" />
        </mxCell>
        <mxCell id="bxZ5GJeIeUVU7ubKapGf-1" value="" style="whiteSpace=wrap;html=1;aspect=fixed;dashed=1;dashPattern=8 8;fillColor=#ffe6cc;strokeColor=#d79b00;" parent="1" vertex="1">
          <mxGeometry x="120" y="240" width="270" height="270" as="geometry" />
        </mxCell>
        <mxCell id="q8HNpOCDMJFhJFrFd_V0-5" style="edgeStyle=orthogonalEdgeStyle;rounded=0;orthogonalLoop=1;jettySize=auto;html=1;exitX=0.25;exitY=0;exitDx=0;exitDy=0;entryX=0.75;entryY=1;entryDx=0;entryDy=0;curved=1;" edge="1" parent="1" source="bxZ5GJeIeUVU7ubKapGf-2" target="q8HNpOCDMJFhJFrFd_V0-1">
          <mxGeometry relative="1" as="geometry">
            <Array as="points">
              <mxPoint x="610" y="240" />
              <mxPoint x="610" y="170" />
              <mxPoint x="635" y="170" />
            </Array>
          </mxGeometry>
        </mxCell>
        <mxCell id="bxZ5GJeIeUVU7ubKapGf-2" value="&lt;font style=&quot;font-size: 18px;&quot;&gt;&lt;b&gt;Code moderne&lt;/b&gt;&lt;/font&gt;" style="whiteSpace=wrap;html=1;aspect=fixed;dashed=1;dashPattern=8 8;fillColor=#fff2cc;strokeColor=#d6b656;" parent="1" vertex="1">
          <mxGeometry x="590" y="240" width="160" height="160" as="geometry" />
        </mxCell>
        <mxCell id="bxZ5GJeIeUVU7ubKapGf-3" value="&lt;font style=&quot;font-size: 18px;&quot;&gt;IHM&lt;/font&gt;" style="rounded=0;whiteSpace=wrap;html=1;fillColor=#f5f5f5;fontColor=#333333;strokeColor=#666666;" parent="1" vertex="1">
          <mxGeometry x="130" y="295" width="250" height="50" as="geometry" />
        </mxCell>
        <mxCell id="bxZ5GJeIeUVU7ubKapGf-5" value="&lt;font style=&quot;font-size: 18px;&quot;&gt;Saisie des transactions&lt;/font&gt;" style="rounded=0;whiteSpace=wrap;html=1;fillColor=#f5f5f5;fontColor=#333333;strokeColor=#666666;" parent="1" vertex="1">
          <mxGeometry x="130" y="360" width="250" height="50" as="geometry" />
        </mxCell>
        <mxCell id="bxZ5GJeIeUVU7ubKapGf-6" value="&lt;font style=&quot;font-size: 18px;&quot;&gt;Rapports financiers&lt;/font&gt;" style="rounded=0;whiteSpace=wrap;html=1;fillColor=#f5f5f5;fontColor=#333333;strokeColor=#666666;" parent="1" vertex="1">
          <mxGeometry x="130" y="430" width="250" height="50" as="geometry" />
        </mxCell>
        <mxCell id="bxZ5GJeIeUVU7ubKapGf-8" value="&lt;font style=&quot;font-size: 18px;&quot;&gt;&lt;b&gt;Code legacy&lt;/b&gt;&lt;/font&gt;" style="text;html=1;strokeColor=none;fillColor=none;align=center;verticalAlign=middle;whiteSpace=wrap;rounded=0;" parent="1" vertex="1">
          <mxGeometry x="185" y="250" width="140" height="30" as="geometry" />
        </mxCell>
        <mxCell id="q8HNpOCDMJFhJFrFd_V0-2" style="edgeStyle=orthogonalEdgeStyle;rounded=0;orthogonalLoop=1;jettySize=auto;html=1;exitX=0.352;exitY=1.04;exitDx=0;exitDy=0;entryX=0.5;entryY=0;entryDx=0;entryDy=0;curved=1;exitPerimeter=0;" edge="1" parent="1" source="q8HNpOCDMJFhJFrFd_V0-1" target="bxZ5GJeIeUVU7ubKapGf-1">
          <mxGeometry relative="1" as="geometry" />
        </mxCell>
        <mxCell id="q8HNpOCDMJFhJFrFd_V0-4" style="edgeStyle=orthogonalEdgeStyle;rounded=0;orthogonalLoop=1;jettySize=auto;html=1;exitX=0.843;exitY=0.96;exitDx=0;exitDy=0;entryX=0.75;entryY=0;entryDx=0;entryDy=0;curved=1;exitPerimeter=0;" edge="1" parent="1" source="q8HNpOCDMJFhJFrFd_V0-1" target="bxZ5GJeIeUVU7ubKapGf-2">
          <mxGeometry relative="1" as="geometry">
            <Array as="points">
              <mxPoint x="700" y="108" />
              <mxPoint x="700" y="175" />
              <mxPoint x="710" y="175" />
            </Array>
          </mxGeometry>
        </mxCell>
        <mxCell id="q8HNpOCDMJFhJFrFd_V0-1" value="&lt;font style=&quot;font-size: 18px;&quot;&gt;IHM&lt;/font&gt;" style="rounded=0;whiteSpace=wrap;html=1;fillColor=#d5e8d4;strokeColor=#82b366;dashed=1;" vertex="1" parent="1">
          <mxGeometry x="20" y="60" width="820" height="50" as="geometry" />
        </mxCell>
        <mxCell id="q8HNpOCDMJFhJFrFd_V0-10" value="" style="verticalLabelPosition=bottom;verticalAlign=top;html=1;shape=mxgraph.basic.flash;rotation=25;fillColor=#f8cecc;strokeColor=#b85450;perimeterSpacing=6;strokeWidth=4;" vertex="1" parent="1">
          <mxGeometry x="630" y="130" width="60" height="100" as="geometry" />
        </mxCell>
      </root>
    </mxGraphModel>
  </diagram>
</mxfile>
